<?xml version="1.0" encoding="utf-8"?>
<!-- Generator: Adobe Illustrator 16.0.4, SVG Export Plug-In . SVG Version: 6.00 Build 0)  -->
<!DOCTYPE svg PUBLIC "-//W3C//DTD SVG 1.1//EN" "http://www.w3.org/Graphics/SVG/1.1/DTD/svg11.dtd">
<svg version="1.1" id="Layer_1" xmlns="http://www.w3.org/2000/svg" xmlns:xlink="http://www.w3.org/1999/xlink" x="0px" y="0px"
	 width="720px" height="720px" viewBox="0 0 720 720" enable-background="new 0 0 720 720" xml:space="preserve">
<rect fill="#00AEEF" width="720" height="720"/>
<path d="M203.473,623.966v13.4h15.08c2.271,0,4.166,0.643,5.722,1.933c1.541,1.289,2.315,3.078,2.315,5.353
	c0,2.188-0.787,3.935-2.351,5.224c-1.562,1.3-3.457,1.951-5.687,1.951h-15.08v13.629h16.669c2.336,0,4.259,0.631,5.763,1.91
	c1.502,1.268,2.261,3.055,2.261,5.364c0,2.195-0.773,3.942-2.302,5.226c-1.522,1.307-3.426,1.962-5.722,1.962h-23.004
	c-3.115,0-5.524-0.868-7.242-2.584c-1.724-1.722-2.579-4.138-2.579-7.247v-50.754c0-3.058,0.865-5.46,2.588-7.199
	c1.728-1.758,4.138-2.619,7.232-2.619h23.004c2.336,0,4.259,0.65,5.763,1.923c1.502,1.299,2.261,3.084,2.261,5.371
	c0,2.177-0.773,3.923-2.302,5.215c-1.522,1.303-3.426,1.943-5.722,1.943H203.473z"/>
<path d="M265.84,652.886l14.348-38.298c0.634-1.699,1.605-3.151,2.902-4.349c1.312-1.187,2.737-1.778,4.279-1.778
	c1.469,0,2.874,0.264,4.233,0.827c1.359,0.572,2.466,1.371,3.335,2.435c0.873,1.075,1.297,2.302,1.297,3.688
	c0,1.739-0.277,3.426-0.843,5.079L273.87,674.74c-1.632,4.357-4.204,6.546-7.706,6.546c-1.826,0-3.428-0.503-4.838-1.476
	c-1.406-0.983-2.445-2.318-3.095-4.027l-21.954-55.294c-0.558-1.811-0.82-3.51-0.82-5.079c0-2.112,0.901-3.798,2.696-5.057
	c1.808-1.265,3.859-1.893,6.163-1.893c1.529,0,2.955,0.608,4.279,1.832c1.326,1.216,2.277,2.648,2.89,4.295L265.84,652.886z"/>
<path d="M321.459,623.966v13.4h15.077c2.27,0,4.179,0.643,5.729,1.933c1.543,1.289,2.31,3.078,2.31,5.353
	c0,2.188-0.775,3.935-2.343,5.224c-1.563,1.3-3.451,1.951-5.695,1.951h-15.077v13.629h16.683c2.329,0,4.25,0.631,5.759,1.91
	c1.491,1.268,2.243,3.055,2.243,5.364c0,2.195-0.756,3.942-2.289,5.226c-1.529,1.307-3.428,1.962-5.713,1.962h-23.015
	c-3.103,0-5.523-0.868-7.241-2.584c-1.725-1.722-2.573-4.138-2.573-7.247v-50.754c0-3.058,0.86-5.46,2.588-7.199
	c1.728-1.758,4.132-2.619,7.226-2.619h23.015c2.329,0,4.25,0.65,5.759,1.923c1.491,1.299,2.243,3.084,2.243,5.371
	c0,2.177-0.756,3.923-2.289,5.215c-1.529,1.303-3.428,1.943-5.713,1.943H321.459z"/>
<path d="M373.285,637.274v34.724c0,2.547-0.71,4.674-2.127,6.388c-1.423,1.724-3.387,2.579-5.912,2.579
	c-2.496,0-4.459-0.864-5.927-2.583c-1.457-1.729-2.182-3.856-2.182-6.384v-55.19c0-2.376,0.725-4.359,2.203-5.955
	c1.486-1.6,3.383-2.392,5.698-2.392c2.67,0,4.914,1.187,6.754,3.579l31.122,39.165v-33.774c0-2.537,0.729-4.664,2.17-6.382
	c1.448-1.733,3.435-2.588,5.955-2.588c2.48,0,4.444,0.854,5.885,2.573c1.439,1.722,2.142,3.845,2.142,6.396v54.252
	c0,3.019-0.695,5.295-2.106,6.863c-1.625,1.604-3.414,2.419-5.393,2.419c-2.8,0-4.935-1.023-6.435-3.068L373.285,637.274z"/>
<path d="M461.07,623.966v48.032c0,2.56-0.713,4.708-2.16,6.404c-1.426,1.714-3.41,2.562-5.944,2.562
	c-2.503,0-4.482-0.864-5.945-2.583c-1.46-1.729-2.199-3.856-2.199-6.384v-48.032h-9.596c-2.26,0-4.173-0.641-5.716-1.912
	c-1.551-1.276-2.321-3.03-2.321-5.246c0-2.252,0.771-4.031,2.312-5.339c1.532-1.305,3.437-1.955,5.725-1.955h35.152
	c2.296,0,4.208,0.65,5.737,1.923c1.515,1.299,2.274,3.084,2.274,5.371c0,2.177-0.774,3.923-2.31,5.215
	c-1.557,1.303-3.461,1.943-5.702,1.943H461.07z"/>
<path d="M481.636,630.308c0-4.522,1.184-8.497,3.56-11.91c2.371-3.41,5.531-6.038,9.458-7.858c3.928-1.822,8.112-2.724,12.549-2.724
	c2.662,0,5.495,0.275,8.518,0.86c3.012,0.577,5.641,1.599,7.864,3.078c2.241,1.477,3.365,3.468,3.365,5.974
	c0,2.209-0.71,4.069-2.092,5.626c-1.397,1.54-3.176,2.315-5.312,2.315c-0.93,0-1.746-0.111-2.425-0.341l-2.967-1.054
	c-2.552-0.909-4.988-1.366-7.291-1.366c-2.011,0-3.848,0.513-5.516,1.53c-1.662,1.013-2.496,2.434-2.496,4.279
	c0,2.88,2.181,4.886,6.541,6.02l4.337,1.165c6.802,1.832,12.194,4.321,16.172,7.458c3.99,3.14,5.977,7.68,5.977,13.636
	c0,7.291-2.003,13.031-5.998,17.224c-2.388,2.586-5.381,4.49-8.978,5.697c-3.601,1.197-7.356,1.789-11.304,1.789
	c-7.182,0-13.332-1.232-18.474-3.703c-1.809-0.863-3.256-2.037-4.356-3.506c-1.09-1.479-1.642-3.165-1.642-5.046
	c0-1.861,0.685-3.533,2.087-5.029c1.385-1.493,3.015-2.241,4.869-2.241c1.578,0,2.944,0.256,4.116,0.748l5.591,2.085
	c2.727,1.068,5.355,1.601,7.916,1.601c2.306,0,4.348-0.644,6.164-1.949c1.789-1.289,2.698-3.078,2.698-5.35
	c0-2.298-0.873-4.02-2.63-5.152c-1.446-0.912-2.848-1.576-4.228-2.047c-1.378-0.452-3.729-1.179-7.052-2.18
	c-4.322-1.25-7.786-2.556-10.382-3.932c-2.621-1.389-4.707-3.331-6.285-5.837C482.423,637.652,481.636,634.358,481.636,630.308z"/>
<path d="M60.405,387.017v72.239c0,3.859-1.088,7.06-3.242,9.641c-2.158,2.564-5.161,3.854-8.98,3.854
	c-3.745,0-6.722-1.304-8.919-3.895c-2.215-2.601-3.331-5.792-3.331-9.6v-72.239h-14.41c-3.407,0-6.281-0.965-8.597-2.895
	c-2.328-1.912-3.498-4.545-3.498-7.875c0-3.387,1.17-6.065,3.481-8.03c2.297-1.953,5.181-2.944,8.614-2.944h52.864
	c3.468,0,6.333,0.971,8.622,2.914c2.293,1.934,3.438,4.612,3.438,8.061c0,3.272-1.166,5.892-3.489,7.854
	c-2.331,1.934-5.185,2.916-8.571,2.916H60.405z"/>
<path d="M154.045,451.004h-40.602l-2.562,9.196c-2.219,8.366-5.82,12.55-10.806,12.55c-3.407,0-6.443-0.834-9.098-2.506
	c-2.666-1.667-4.226-4.049-4.69-7.181c0-3.303,0.317-5.859,0.967-7.651l28.551-78.542c1.467-4.087,3.789-7.38,6.951-9.89
	c3.17-2.496,6.816-3.76,10.985-3.76c4.162,0,7.819,1.233,10.986,3.729c3.161,2.475,5.48,5.779,6.963,9.921l28.543,78.542
	c0.644,1.874,0.967,4.422,0.967,7.651c-0.358,3.102-1.877,5.487-4.558,7.172c-2.664,1.678-5.759,2.515-9.277,2.515
	c-2.298,0-4.343-1.001-6.152-3.025c-1.806-2.01-3.095-4.339-3.836-6.977L154.045,451.004z M146.768,429.271l-12.872-40.352
	l-12.857,40.352H146.768z"/>
<path d="M250.886,412.762c5.714,1.679,10.163,3.897,13.337,6.649c5.705,5.067,8.564,11.516,8.564,19.351
	c0,6.045-1.424,11.559-4.25,16.528c-2.828,4.98-6.711,8.858-11.655,11.666c-4.951,2.799-10.445,4.197-16.499,4.197h-31.888
	c-4.679,0-8.31-1.285-10.902-3.865c-2.572-2.588-3.874-6.212-3.874-10.892v-76.355c0-4.591,1.301-8.203,3.897-10.831
	c2.595-2.619,6.23-3.938,10.878-3.938h24.094c9.359,0,16.666,2.229,21.938,6.672c2.721,2.293,4.875,5.1,6.474,8.394
	c1.596,3.288,2.41,6.679,2.41,10.167c0,5.401-0.978,9.783-2.915,13.143C258.563,407.009,255.352,410.036,250.886,412.762z
	 M218.023,405.586h12.208c2.951,0,5.396-0.956,7.366-2.874c1.963-1.912,2.935-4.336,2.935-7.287c0-2.807-1.129-4.991-3.443-6.546
	c-2.295-1.557-4.955-2.321-7.978-2.321h-11.086V405.586z M218.023,450.044h16.821c4.701,0,8.084-1.217,10.152-3.65
	c1.697-1.807,2.515-4.614,2.515-8.399c-0.41-7.22-4.847-10.821-13.327-10.821h-16.161V450.044z"/>
<path d="M312.936,449.42h25.07c3.525,0,6.41,0.957,8.667,2.864c2.264,1.912,3.4,4.607,3.4,8.06c0,3.32-1.15,5.943-3.46,7.888
	c-2.303,1.963-5.164,2.922-8.607,2.922h-34.14c-4.75,0-8.475-1.332-11.176-4.007c-2.699-2.672-4.066-6.415-4.066-11.211v-78.763
	c0-3.791,1.101-7.002,3.277-9.594c2.161-2.595,5.151-3.893,8.946-3.893c3.771,0,6.732,1.298,8.867,3.893
	c2.146,2.592,3.222,5.803,3.222,9.594V449.42z"/>
<path d="M383.448,387.017v20.15h22.654c3.412,0,6.284,0.982,8.613,2.908c2.332,1.94,3.494,4.62,3.494,8.068
	c0,3.288-1.176,5.89-3.549,7.85c-2.337,1.947-5.197,2.92-8.558,2.92h-22.654v20.507h25.063c3.508,0,6.4,0.957,8.652,2.864
	c2.272,1.912,3.401,4.607,3.401,8.06c0,3.32-1.148,5.943-3.443,7.888c-2.306,1.963-5.175,2.922-8.611,2.922h-34.601
	c-4.682,0-8.314-1.285-10.899-3.865c-2.588-2.588-3.877-6.212-3.877-10.892v-76.355c0-4.591,1.292-8.203,3.898-10.831
	c2.584-2.619,6.225-3.938,10.879-3.938h34.601c3.508,0,6.4,0.971,8.652,2.914c2.272,1.934,3.401,4.612,3.401,8.061
	c0,3.272-1.148,5.892-3.443,7.854c-2.306,1.934-5.175,2.916-8.611,2.916H383.448z"/>
<g>
	<path fill="#FFFFFF" d="M564.55,474.926c-7.398,0-14.534-1.357-21.21-4.035c-6.714-2.681-12.6-6.68-17.492-11.885
		c-9.781-10.309-14.742-24.265-14.742-41.478c0-8.266,1.476-16.18,4.387-23.523c2.911-7.365,7.383-13.775,13.29-19.053
		c9.757-8.815,21.74-13.286,35.613-13.286c7.95,0,15.309,1.418,21.872,4.215c6.533,2.794,12.241,6.784,16.967,11.859
		c4.688,5.076,8.326,11.073,10.817,17.827c2.494,6.765,3.758,14.153,3.758,21.961c0,8.631-1.466,16.914-4.358,24.62
		c-2.894,7.699-7.415,14.36-13.438,19.797c-4.72,4.304-10.192,7.579-16.262,9.734C577.703,473.834,571.242,474.926,564.55,474.926z
		 M564.211,385.514c-3.236,0-6.437,0.736-9.514,2.187c-3.116,1.477-5.788,3.453-7.938,5.874c-5.083,5.772-7.663,13.881-7.663,24.097
		c0,5.606,0.924,11.061,2.744,16.211c1.804,5.091,4.646,9.28,8.448,12.452c3.771,3.149,8.558,4.747,14.227,4.747
		c5.812,0,10.639-1.565,14.344-4.651c3.82-3.147,6.536-7.149,8.309-12.237c1.756-5.094,2.647-10.653,2.647-16.521
		c0-5.599-0.94-10.957-2.796-15.925c-1.828-4.873-4.705-8.853-8.55-11.824C574.659,386.998,569.861,385.514,564.211,385.514z"/>
	<g>
		<path d="M564.396,362.715c7.859,0,15.005,1.38,21.461,4.131c6.433,2.752,11.964,6.62,16.61,11.609
			c4.605,4.987,8.145,10.816,10.601,17.476c2.459,6.67,3.693,13.865,3.693,21.598c0,8.578-1.439,16.651-4.292,24.251
			c-2.854,7.596-7.25,14.054-13.158,19.387c-4.65,4.24-9.956,7.411-15.909,9.524c-5.958,2.122-12.234,3.187-18.852,3.187
			c-7.289,0-14.227-1.315-20.819-3.96c-6.583-2.629-12.3-6.504-17.118-11.63c-9.646-10.166-14.458-23.76-14.458-40.759
			c0-8.173,1.438-15.885,4.313-23.137c2.876-7.276,7.218-13.479,13.014-18.657C539.08,367.062,550.723,362.715,564.396,362.715
			 M564.515,452.13c6.08,0,11.091-1.625,15.016-4.894c3.953-3.258,6.811-7.482,8.628-12.699c1.798-5.215,2.705-10.841,2.705-16.866
			c0-5.764-0.958-11.193-2.861-16.292c-1.916-5.106-4.878-9.185-8.892-12.287c-4.009-3.077-8.977-4.627-14.899-4.627
			c-3.406,0-6.728,0.762-9.961,2.286c-3.242,1.536-6.005,3.57-8.275,6.127c-5.292,6.009-7.928,14.27-7.928,24.793
			c0,5.748,0.931,11.262,2.804,16.561c1.871,5.281,4.792,9.594,8.766,12.908C553.596,450.464,558.572,452.13,564.515,452.13
			 M564.396,360.616c-14.141,0-26.36,4.562-36.321,13.561c-6.021,5.38-10.586,11.924-13.558,19.443
			c-2.96,7.465-4.461,15.51-4.461,23.908c0,17.491,5.059,31.69,15.034,42.203c4.992,5.311,11.004,9.396,17.862,12.135
			c6.797,2.727,14.064,4.109,21.598,4.109c6.813,0,13.393-1.113,19.556-3.309c6.199-2.2,11.791-5.549,16.619-9.95
			c6.141-5.543,10.756-12.342,13.709-20.199c2.937-7.825,4.426-16.232,4.426-24.989c0-7.932-1.286-15.442-3.823-22.323
			c-2.539-6.885-6.249-12.999-11.027-18.174c-4.833-5.188-10.66-9.263-17.327-12.115
			C579.984,362.062,572.487,360.616,564.396,360.616L564.396,360.616z M564.515,450.031c-5.417,0-9.977-1.515-13.553-4.502
			c-3.657-3.051-6.394-7.087-8.134-11.999c-1.779-5.036-2.683-10.372-2.683-15.859c0-9.953,2.491-17.827,7.404-23.406
			c2.05-2.309,4.608-4.2,7.599-5.617c2.932-1.383,5.982-2.084,9.062-2.084c5.414,0,9.997,1.411,13.622,4.193
			c3.734,2.887,6.42,6.604,8.204,11.359c1.81,4.847,2.728,10.082,2.728,15.555c0,5.752-0.871,11.196-2.591,16.183
			c-1.705,4.895-4.315,8.745-7.979,11.764C574.676,448.549,570.075,450.031,564.515,450.031L564.515,450.031z"/>
	</g>
</g>
<g>
	<path fill="#FFFFFF" d="M644.381,473.799c-4.039,0-7.313-1.434-9.732-4.262c-2.365-2.792-3.562-6.25-3.562-10.281v-79.215
		c0-4.848,1.412-8.739,4.196-11.567c2.8-2.821,6.71-4.25,11.626-4.25h24.768c12.155,0,21.476,3.087,27.7,9.177
		c2.284,2.186,4.325,4.767,6.058,7.662c1.753,2.896,3.104,6.003,4.014,9.229c0.911,3.231,1.373,6.511,1.373,9.746
		c0,10.499-2.809,19.166-8.35,25.76c-6.345,7.719-15.645,11.636-27.635,11.636h-17.348v21.823c0,4.047-1.156,7.508-3.438,10.285
		C651.721,472.367,648.468,473.799,644.381,473.799z M668.803,414.23c4.897,0,8.716-1.336,11.351-3.97
		c2.458-2.474,3.654-5.767,3.654-10.063c-0.233-3.894-1.571-6.918-4.089-9.183c-2.481-2.263-5.721-3.408-9.633-3.408h-12.598v26.624
		H668.803z"/>
	<g>
		<path d="M671.676,365.272c11.926,0,20.922,2.965,26.967,8.878c2.224,2.128,4.184,4.598,5.891,7.451
			c1.711,2.827,3.018,5.83,3.904,8.975c0.892,3.161,1.334,6.311,1.334,9.461c0,10.28-2.698,18.651-8.104,25.085
			c-6.176,7.513-15.112,11.262-26.831,11.262h-18.396v22.872c0,3.824-1.074,7.031-3.2,9.619c-2.132,2.586-5.084,3.875-8.858,3.875
			c-3.731,0-6.719-1.304-8.935-3.895c-2.203-2.601-3.312-5.792-3.312-9.6v-79.215c0-4.591,1.308-8.203,3.896-10.831
			c2.599-2.619,6.224-3.938,10.878-3.938H671.676 M656.439,415.279h12.363c5.211,0,9.249-1.434,12.093-4.276
			c2.637-2.654,3.961-6.251,3.961-10.806c-0.249-4.188-1.703-7.504-4.436-9.963c-2.698-2.46-6.154-3.677-10.335-3.677h-13.646
			V415.279 M671.676,363.174h-24.768c-5.206,0-9.367,1.533-12.367,4.558c-2.991,3.037-4.505,7.177-4.505,12.31v79.215
			c0,4.286,1.281,7.973,3.809,10.956c2.634,3.079,6.177,4.637,10.536,4.637c4.415,0,7.94-1.561,10.478-4.639
			c2.442-2.973,3.68-6.657,3.68-10.954v-20.773h16.298c12.318,0,21.892-4.047,28.452-12.027c5.689-6.771,8.582-15.665,8.582-26.418
			c0-3.332-0.476-6.707-1.413-10.03c-0.936-3.317-2.324-6.511-4.129-9.492c-1.774-2.967-3.874-5.622-6.234-7.881
			C693.682,366.362,684.115,363.174,671.676,363.174L671.676,363.174z M658.538,388.656h11.548c3.693,0,6.611,1.023,8.921,3.129
			c2.299,2.068,3.522,4.838,3.751,8.475c-0.012,3.976-1.107,7.006-3.352,9.265c-2.425,2.424-5.994,3.656-10.604,3.656h-10.265
			V388.656L658.538,388.656z"/>
	</g>
</g>
<g>
	<path fill="#FFFFFF" d="M466.674,474.382c-9.466-0.011-17.167-7.717-17.167-17.178c0-5.113,2.294-9.889,6.155-13.118h-5.431
		v-10.914h4.947c1.369-4.499,2.063-9.348,2.063-14.426c0-5.872-2.014-9.107-4.146-12.532c-2.303-3.701-4.684-7.528-4.684-14.656
		c0-3.255,0.868-6.217,2.585-8.832h-21.11v-19.721h73.586v19.721h-21.099c1.718,2.614,2.587,5.572,2.587,8.821
		c-0.002,7.136-2.387,10.965-4.693,14.668c-2.132,3.423-4.146,6.655-4.146,12.521c0,5.073,0.69,9.926,2.053,14.437h4.943v10.914
		h-5.415c3.869,3.227,6.168,7.999,6.168,13.106C483.872,466.671,476.157,474.382,466.674,474.382L466.674,474.382z"/>
	<g>
		<path d="M502.426,364.054v17.623h-22.153c2.097,2.445,3.642,5.667,3.642,9.87c-0.004,13.441-8.84,14.644-8.84,27.188
			c0,6.694,1.2,11.966,2.329,15.485h4.667v8.816h-7.786c5.062,2.721,8.539,8.012,8.539,14.155c0,8.914-7.229,16.141-16.148,16.141
			c-8.913-0.011-16.119-7.227-16.119-16.129c0-6.155,3.472-11.446,8.519-14.167h-7.794v-8.816h4.669
			c1.136-3.513,2.342-8.775,2.342-15.475c0-12.556-8.829-13.758-8.829-27.188c0-4.201,1.543-7.436,3.639-9.881h-22.163v-17.623
			H502.426 M504.524,361.955h-2.099h-71.488h-2.099v2.099v17.623v2.099h2.099h18.238c-1.204,2.368-1.812,4.973-1.812,7.782
			c0,7.428,2.573,11.562,4.843,15.21c2.14,3.438,3.986,6.406,3.986,11.979c0,4.695-0.604,9.188-1.798,13.376h-3.114h-2.099v2.099
			v8.816v2.099h2.099h1.793c-2.929,3.28-4.616,7.55-4.616,12.068c0,10.038,8.172,18.216,18.215,18.228
			c10.064,0,18.25-8.183,18.25-18.239c0-4.514-1.689-8.779-4.624-12.057h1.772h2.099v-2.099v-8.816v-2.099h-2.099h-3.108
			c-1.188-4.199-1.789-8.695-1.789-13.387c0-5.564,1.848-8.531,3.987-11.966c2.273-3.649,4.851-7.786,4.853-15.222
			c0-2.805-0.608-5.405-1.813-7.772h18.227h2.099v-2.099v-17.623V361.955L504.524,361.955z"/>
	</g>
</g>
<g>
	<path d="M97.049,542.058"/>
	<path d="M629.299,542.058"/>
	<path d="M308.98,539.121H97.049c-1.623,0-2.935,1.315-2.935,2.937c0,1.622,1.312,2.938,2.935,2.938H309.34
		c-0.224-1.914-0.363-3.852-0.363-5.827C308.977,539.154,308.98,539.14,308.98,539.121z"/>
	<path d="M629.299,539.121H410.218c0,0.019,0,0.033,0,0.047c0,1.976-0.143,3.913-0.356,5.827h219.437
		c1.622,0,2.938-1.315,2.938-2.938C632.236,540.437,630.921,539.121,629.299,539.121z"/>
	<path d="M409.862,544.995c0.213-1.914,0.356-3.852,0.356-5.827c0-0.014,0-0.028,0-0.047"/>
	<path d="M308.98,539.121c0,0.019-0.004,0.033-0.004,0.047c0,1.976,0.14,3.913,0.363,5.827"/>
</g>
<g>
	<path d="M367.307,532.945c-0.775-0.38-1.678-0.388-2.726-0.029c-1.489,0.504-2.67,1.592-3.513,3.229
		c-0.846,1.644-1.269,3.293-1.269,4.951c0,1.033,0.189,1.994,0.545,2.875c0.384,0.877,0.926,1.522,1.656,1.917
		c0.727,0.399,1.582,0.439,2.58,0.098c1.047-0.358,1.95-0.981,2.713-1.882c0.765-0.909,1.357-1.926,1.759-3.075
		c0.416-1.141,0.604-2.243,0.604-3.276c0-1.058-0.188-2.024-0.585-2.915C368.658,533.948,368.074,533.323,367.307,532.945z"/>
	<path d="M336.756,543.02c-0.734-0.406-1.607-0.449-2.623-0.113c-1.061,0.339-1.956,0.956-2.724,1.832
		c-0.76,0.89-1.317,1.882-1.707,3.011c-0.387,1.142-0.572,2.25-0.572,3.361c0,1.686,0.449,3.059,1.347,4.077
		c0.904,1.026,2.121,1.291,3.656,0.79c1.016-0.326,1.889-0.939,2.623-1.809c0.746-0.901,1.291-1.903,1.67-3.049
		c0.368-1.143,0.563-2.237,0.563-3.292c0-1.03-0.195-1.989-0.563-2.876C338.046,544.062,337.501,543.419,336.756,543.02z"/>
	<path d="M359.602,488.544c-27.962,0-50.625,22.666-50.625,50.624c0,27.955,22.664,50.62,50.625,50.62
		c27.956,0,50.616-22.665,50.616-50.62C410.218,511.21,387.558,488.544,359.602,488.544z M346.158,555.006
		c0,1.219-0.305,2.345-0.912,3.381c-0.625,1.039-1.487,1.74-2.614,2.103c-0.943,0.318-1.689,0.304-2.237-0.01
		c-0.546-0.317-0.998-0.923-1.344-1.82c-0.777,1.374-1.692,2.474-2.726,3.304c-1.029,0.828-2.234,1.474-3.615,1.923
		c-1.596,0.517-3.104,0.584-4.529,0.174c-1.406-0.388-2.603-1.156-3.574-2.28c-1.799-2.169-2.699-5.059-2.699-8.676
		c0-1.809,0.41-3.772,1.231-5.92c0.824-2.128,1.881-4.015,3.193-5.638c2.019-2.527,4.34-4.224,6.957-5.076
		c1.884-0.619,3.772-0.414,5.652,0.586v-9.398c0-1.187,0.32-2.273,0.964-3.286c0.642-1.012,1.534-1.698,2.67-2.085
		c1.097-0.346,1.978-0.234,2.623,0.346c0.634,0.585,0.959,1.474,0.959,2.67V555.006z M375.922,540.729
		c-0.518,1.8-1.316,3.513-2.391,5.145c-1.106,1.662-2.427,3.126-3.984,4.388c-1.544,1.258-3.135,2.168-4.766,2.726
		c-1.667,0.568-3.269,0.752-4.833,0.551c-1.566-0.198-2.907-0.756-4.009-1.672c-2.167-1.687-3.233-4.458-3.233-8.341
		c0-1.795,0.266-3.626,0.796-5.451c0.538-1.835,1.357-3.554,2.437-5.15c1.123-1.682,2.459-3.16,4.009-4.414
		c1.555-1.252,3.145-2.175,4.791-2.727c1.625-0.545,3.222-0.725,4.792-0.523c1.554,0.209,2.894,0.76,4,1.666
		c1.075,0.889,1.874,2.06,2.391,3.512c0.535,1.454,0.784,3.092,0.784,4.911C376.706,537.15,376.457,538.929,375.922,540.729z
		 M393.64,523.862l-2.083,0.633v15.394c0,1.216-0.308,2.329-0.96,3.327c-0.644,0.992-1.521,1.666-2.633,2.004
		c-1.129,0.337-2.016,0.192-2.665-0.42c-0.666-0.625-0.998-1.522-0.998-2.712v-15.389c-1.81,0.559-3.033,0.546-3.642-0.025
		c-0.565-0.47-0.859-1.154-0.859-2.066c0-0.551,0.159-1.174,0.466-1.847c0.303-0.68,0.696-1.211,1.178-1.596
		c0.586-0.496,1.543-0.938,2.857-1.333v-4.741c0-1.205,0.327-2.311,0.978-3.317c0.65-1.013,1.549-1.689,2.686-2.036
		c1.104-0.327,1.974-0.195,2.633,0.413c0.645,0.61,0.96,1.529,0.96,2.738v4.735l2.083-0.638c1.032-0.306,1.903-0.268,2.602,0.125
		c0.701,0.39,1.047,1.115,1.047,2.188c0,1.053-0.346,2.007-1.047,2.842C395.537,522.967,394.666,523.555,393.64,523.862z"/>
</g>
<g>
	<rect x="375.242" y="64.438" fill="#9FC54D" width="8.623" height="223.313"/>
	<rect x="342.486" y="64.438" fill="#9FC54D" width="8.624" height="223.313"/>
	<g>
		<path fill="#F27179" d="M341.549,51.004c1.707-7.001-3.881-11.889-12.419-10.861c-8.537,1.027-19.994-0.647-25.459-3.721
			c-5.465-3.074-6.583,0.419-2.483,7.763c4.099,7.344,14.159,14.747,22.355,16.451C331.74,62.339,339.842,58.005,341.549,51.004z"/>
	</g>
	<g>
		<path fill="#F27179" d="M387.497,51.004c-1.708-7.001,3.88-11.889,12.418-10.861c8.538,1.027,19.995-0.647,25.461-3.721
			c5.466-3.074,6.583,0.419,2.484,7.763c-4.1,7.344-14.16,14.747-22.356,16.451S389.205,58.005,387.497,51.004z"/>
	</g>
	<ellipse fill="#CC202A" cx="362.042" cy="62.188" rx="37.877" ry="41.912"/>
	<polygon fill="#CC202A" points="314.217,271.692 357.641,271.692 357.641,321.452 357.641,333.208 335.022,333.208 
		335.022,321.446 324.165,333.208 276.221,333.208 314.217,307.877 	"/>
	<polygon fill="#CC202A" points="411.561,271.692 368.138,271.692 368.138,321.452 368.138,333.208 390.755,333.208 
		390.755,321.446 401.611,333.208 449.558,333.208 411.561,307.877 	"/>
	<g>
		<path fill="#9FC54D" d="M280.021,96.638l-82.009-28.495c0,0,27.105,68.112,38.225,59.771c11.12-8.34,22.933-5.558,22.933-5.558
			L280.021,96.638z"/>
		<path fill="#9FC54D" d="M439.176,96.638l82.01-28.495c0,0-27.104,68.112-38.223,59.771c-11.121-8.34-22.935-5.558-22.935-5.558
			L439.176,96.638z"/>
		<path fill="#FFFFFF" d="M213.996,83.437l24.324,11.812c0,0-8.34,9.033,0,16.681C238.32,111.93,222.336,115.404,213.996,83.437z"/>
		<path fill="#FFFFFF" d="M504.503,83.437L480.18,95.249c0,0,8.336,9.033,0,16.681C480.18,111.93,496.164,115.404,504.503,83.437z"
			/>
		<path fill="#CC202A" d="M392.943,242.358c0-36.599-13.413-66.27-29.957-66.27c-16.546,0-29.958,29.67-29.958,66.27H392.943z"/>
		<path fill="#9FC54D" d="M340.257,167.685c0,0-82.849,85.263-44.286,105.401c16.601,8.665,24.193-21.707,28.989-40.893
			C327.972,220.156,340.257,167.685,340.257,167.685z"/>
		<path fill="#9FC54D" d="M386.565,167.685c0,0,81.992,84.375,43.827,104.305c-16.431,8.58-23.945-21.483-28.69-40.462
			C398.723,219.608,386.565,167.685,386.565,167.685z"/>
		<g>
			<path fill="#9FC54D" d="M480.47,135.749c0.021,39.569-32.045,71.664-71.615,71.68l-96.637,0.047
				c-39.568,0.021-71.661-32.042-71.677-71.615l0,0c-0.021-39.563,32.039-71.657,71.61-71.681l96.637-0.043
				C448.356,64.119,480.45,96.176,480.47,135.749L480.47,135.749z"/>
			<g>
				<path fill="#FFFFFF" d="M331.61,111.101c0.014,13.388-7.821,24.249-17.486,24.249c-9.676,0.007-17.519-10.845-17.523-24.233
					c-0.008-13.382,7.821-24.244,17.497-24.25C323.759,86.862,331.61,97.713,331.61,111.101z"/>
				<path fill="#010101" d="M327.635,111.101c0.002,8.495-4.965,15.377-11.098,15.383c-6.133,0-11.103-6.878-11.11-15.367
					c-0.005-8.494,4.964-15.382,11.096-15.382C322.656,95.729,327.63,102.612,327.635,111.101z"/>
				<path fill="#FFFFFF" d="M310.632,104.648c0.009,1.787-1.447,3.234-3.231,3.229c-1.779,0.005-3.231-1.442-3.234-3.224
					c0-1.787,1.447-3.234,3.229-3.239C309.186,101.42,310.632,102.861,310.632,104.648z"/>
				<path fill="#CC202A" d="M366.273,129.919c0,2.107-1.711,3.819-3.824,3.819c-2.111,0.006-3.824-1.703-3.82-3.819
					c0-2.105,1.707-3.824,3.816-3.824C364.556,126.095,366.275,127.802,366.273,129.919z"/>
				<path fill="#FFFFFF" d="M430.05,111.053c0,13.389-7.826,24.244-17.496,24.25c-9.674,0.005-17.516-10.846-17.521-24.234
					c-0.004-13.387,7.825-24.244,17.497-24.249C422.199,86.815,430.042,97.67,430.05,111.053z"/>
				<path fill="#010101" d="M421.757,111.058c0.004,8.495-4.964,15.377-11.095,15.382c-6.132,0-11.104-6.883-11.112-15.372
					c-0.002-8.489,4.958-15.377,11.095-15.383C416.777,95.686,421.746,102.563,421.757,111.058z"/>
				<path fill="#FFFFFF" d="M404.219,104.601c0,1.787-1.447,3.234-3.229,3.234c-1.788,0-3.238-1.44-3.234-3.229
					c-0.001-1.787,1.443-3.234,3.229-3.234C402.766,101.372,404.219,102.818,404.219,104.601z"/>
				<g>
					<path fill="#010101" d="M371.447,138.632c-4.323,7.282-14.095,6.792-17.917-0.633c-1.208-2.361-4.762-0.276-3.548,2.08
						c5.262,10.235,19.202,10.437,25.02,0.633C376.362,138.42,372.798,136.35,371.447,138.632L371.447,138.632z"/>
				</g>
			</g>
		</g>
	</g>
	<polygon fill="#F27179" points="336.433,276.473 350.051,276.473 350.051,295.536 335.751,295.536 	"/>
	<polygon fill="#F27179" points="335.751,303.026 350.731,305.07 350.731,312.558 336.433,311.197 	"/>
	<polygon fill="#F27179" points="392.26,276.473 405.879,276.473 405.879,295.536 391.581,295.536 	"/>
	<polygon fill="#F27179" points="391.581,303.026 406.56,305.07 406.56,312.558 392.26,311.197 	"/>
	<path fill="#F27179" d="M375.242,30.011c0,0,15.656,5.446,17.019,29.276l-8.85-0.682C383.41,58.605,384.09,47.032,375.242,30.011z"
		/>
	<g>
		<g>
			<path fill="#F27179" d="M346.354,210.824c-1.173,0.969-1.831,2.508-2.708,3.758c-0.531,0.756-1.086,1.496-1.661,2.218
				c-0.449,0.564-0.277,0.984-0.531,1.556c-0.198,0.445,0.209,0.91,0.673,0.673c0.489-0.25,1.021-0.241,1.363-0.731
				c0.559-0.798,1.089-1.615,1.603-2.442c0.866-1.393,2.273-3.14,1.946-4.85C346.976,210.675,346.57,210.646,346.354,210.824
				L346.354,210.824z"/>
		</g>
	</g>
	<g>
		<g>
			<path fill="#F27179" d="M348.895,222.557c-0.63,1.597-1.501,3.05-2.305,4.561c-0.511,0.96-1.72,2.093-1.258,3.233
				c0.11,0.271,0.316,0.488,0.632,0.481c1.371-0.027,1.841-1.64,2.368-2.696c0.83-1.666,1.247-3.483,1.511-5.317
				C349.933,222.192,349.129,221.961,348.895,222.557L348.895,222.557z"/>
		</g>
	</g>
	<g>
		<g>
			<path fill="#F27179" d="M357.936,213.672c-1.083,1.617-1.761,3.379-2.45,5.178c-0.334,0.874,1.091,1.462,1.504,0.634
				c0.891-1.786,0.965-3.679,1.545-5.56C358.65,213.554,358.136,213.374,357.936,213.672L357.936,213.672z"/>
		</g>
	</g>
	<g>
		<g>
			<path fill="#9C7C54" d="M362.306,227.019c0.317,0,0.317-0.492,0-0.492S361.988,227.019,362.306,227.019L362.306,227.019z"/>
		</g>
	</g>
	<g>
		<g>
			<path fill="#F27179" d="M362.42,225.762c-0.976,1.525-1.535,3.117-2.194,4.798c-0.325,0.828-1.776,3.288-0.162,3.732
				c1.508,0.415,1.943-1.752,2.277-2.735c0.619-1.828,1.156-3.538,1.301-5.464C363.694,225.405,362.748,225.249,362.42,225.762
				L362.42,225.762z"/>
		</g>
	</g>
	<g>
		<g>
			<path fill="#F27179" d="M370.316,211.071c-0.263,0.946-0.677,1.945-0.649,2.937c0.027,0.95-0.102,1.974,0.312,2.843
				c0.178,0.375,0.813,0.375,0.991,0c0.413-0.87,0.285-1.894,0.312-2.843c0.028-0.991-0.386-1.991-0.649-2.937
				C370.589,210.914,370.359,210.914,370.316,211.071L370.316,211.071z"/>
		</g>
	</g>
	<g>
		<g>
			<path fill="#F27179" d="M372.303,226.649c-0.669,1.117-1.235,2.303-1.21,3.625c0.029,1.515,0.612,3.07,1.175,4.452
				c0.252,0.619,0.652,0.953,1.329,1.012c0.094,0.008,0.188,0.017,0.281,0.025c0.293,0.025,0.556-0.178,0.708-0.406
				c0.839-1.256-0.185-2.422-0.622-3.677c-0.26-0.748-0.388-1.531-0.536-2.307c-0.171-0.896-0.559-1.659-0.667-2.6
				C372.735,226.542,372.439,226.422,372.303,226.649L372.303,226.649z"/>
		</g>
	</g>
	<g>
		<g>
			<path fill="#F27179" d="M379.723,212.311c-0.639,1.34-1.073,2.688-0.494,4.123c0.497,1.233,1.552,2.332,2.951,1.963
				c0.291-0.077,0.475-0.459,0.294-0.722c-0.482-0.7-1.276-1.152-1.598-1.95c-0.403-1-0.552-2.182-0.542-3.249
				C380.337,212.165,379.867,212.009,379.723,212.311L379.723,212.311z"/>
		</g>
	</g>
	<g>
		<g>
			<path fill="#F27179" d="M382.345,226.093c-0.179,1.512,0.024,3.143,0.657,4.529c0.647,1.418,1.678,3.922,3.513,3.854
				c0.501-0.019,1.075-0.352,1.169-0.89c0.259-1.489-0.936-2.474-1.605-3.723c-0.673-1.255-1.381-2.645-1.641-4.054
				C384.201,224.525,382.474,225,382.345,226.093L382.345,226.093z"/>
		</g>
	</g>
</g>
</svg>
